<?xml version="1.0" encoding="UTF-8" standalone="no"?>
<!DOCTYPE svg PUBLIC "-//W3C//DTD SVG 1.1//EN" "http://www.w3.org/Graphics/SVG/1.1/DTD/svg11.dtd">
<svg width="100%" height="100%" viewBox="0 0 921 917" version="1.1" xmlns="http://www.w3.org/2000/svg" xmlns:xlink="http://www.w3.org/1999/xlink" xml:space="preserve" xmlns:serif="http://www.serif.com/" style="fill-rule:evenodd;clip-rule:evenodd;stroke-linejoin:round;stroke-miterlimit:2;">
    <g transform="matrix(1,0,0,1,-2913,-1934)">
        <g id="Artboard2" transform="matrix(1,0,0,1,2913,2901)">
            <g transform="matrix(0.833333,0,0,0.833333,193.833333,-978.5)">
                <path d="M100,894C100,772.579 198.579,674 320,674C441.421,674 540,772.579 540,894L457.5,894C457.5,818.112 395.888,756.5 320,756.5C244.112,756.5 182.5,818.112 182.5,894L100,894ZM-10,344C111.421,344 210,442.579 210,564C210,685.421 111.421,784 -10,784L-10,701.5C65.888,701.5 127.5,639.888 127.5,564C127.5,488.112 65.888,426.5 -10,426.5L-10,344ZM650,701.5L650,784C528.579,784 430,685.421 430,564C430,442.579 528.579,344 650,344L650,426.5C574.112,426.5 512.5,488.112 512.5,564C512.5,639.888 574.112,701.5 650,701.5ZM540,234C540,355.421 441.421,454 320,454C198.579,454 100,355.421 100,234L182.5,234C182.5,309.888 244.112,371.5 320,371.5C395.888,371.5 457.5,309.888 457.5,234L540,234Z" style="fill:rgb(18,18,18);"/>
            </g>
            <g transform="matrix(0.842912,0,0,0.842912,147.779693,-1075.14751)">
                <path d="M588.5,346C588.5,466.042 491.042,563.5 371,563.5C250.958,563.5 153.5,466.042 153.5,346L235.063,346C235.063,421.026 295.974,481.937 371,481.937C446.026,481.937 506.938,421.026 506.938,346L588.5,346Z" style="fill:rgb(18,18,18);"/>
            </g>
            <g transform="matrix(0.842912,0,0,0.842912,147.779693,-525.14751)">
                <path d="M153.5,346C153.5,225.958 250.958,128.5 371,128.5C491.042,128.5 588.5,225.958 588.5,346L506.938,346C506.938,270.974 446.026,210.062 371,210.062C295.974,210.062 235.063,270.974 235.063,346L153.5,346Z" style="fill:rgb(18,18,18);"/>
            </g>
            <g transform="matrix(0.842912,0,0,0.842912,-127.220307,-800.14751)">
                <path d="M371,128.5C491.042,128.5 588.5,225.958 588.5,346C588.5,466.042 491.042,563.5 371,563.5L371,481.937C446.026,481.937 506.938,421.026 506.938,346C506.938,270.974 446.026,210.062 371,210.062L371,128.5Z" style="fill:rgb(18,18,18);"/>
            </g>
            <g transform="matrix(0.842912,0,0,0.842912,422.779693,-800.14751)">
                <path d="M371,481.937L371,563.5C250.958,563.5 153.5,466.042 153.5,346C153.5,225.958 250.958,128.5 371,128.5L371,210.062C295.974,210.062 235.062,270.974 235.062,346C235.062,421.026 295.974,481.937 371,481.937Z" style="fill:rgb(18,18,18);"/>
            </g>
        </g>
    </g>
</svg>
