<?xml version="1.0" encoding="UTF-8" standalone="no"?>
<!DOCTYPE svg PUBLIC "-//W3C//DTD SVG 1.1//EN" "http://www.w3.org/Graphics/SVG/1.1/DTD/svg11.dtd">
<svg width="100%" height="100%" viewBox="0 0 921 917" version="1.1" xmlns="http://www.w3.org/2000/svg" xmlns:xlink="http://www.w3.org/1999/xlink" xml:space="preserve" xmlns:serif="http://www.serif.com/" style="fill-rule:evenodd;clip-rule:evenodd;stroke-linejoin:round;stroke-miterlimit:2;">
    <g transform="matrix(1,0,0,1,-971,-1934)">
        <g id="Artboard2" transform="matrix(1,0,0,1,971,2901)">
            <g transform="matrix(0.757576,0,0,0.757576,218.075758,-1035.951812)">
                <path d="M100,894C100,772.579 198.579,674 320,674C441.421,674 540,772.579 540,894L457.5,894C457.5,818.112 395.888,756.5 320,756.5C244.112,756.5 182.5,818.112 182.5,894L100,894ZM-10,344C111.421,344 210,442.579 210,564C210,685.421 111.421,784 -10,784L-10,701.5C65.888,701.5 127.5,639.888 127.5,564C127.5,488.112 65.888,426.5 -10,426.5L-10,344ZM650,701.5L650,784C528.579,784 430,685.421 430,564C430,442.579 528.579,344 650,344L650,426.5C574.112,426.5 512.5,488.112 512.5,564C512.5,639.888 574.112,701.5 650,701.5ZM540,234C540,355.421 441.421,454 320,454C198.579,454 100,355.421 100,234L182.5,234C182.5,309.888 244.112,371.5 320,371.5C395.888,371.5 457.5,309.888 457.5,234L540,234Z" style="fill:rgb(18,18,18);"/>
            </g>
            <g transform="matrix(0.766284,0,0,0.766284,176.208812,-1123.813184)">
                <path d="M588.5,346C588.5,466.042 491.042,563.5 371,563.5C250.958,563.5 153.5,466.042 153.5,346L235.063,346C235.063,421.026 295.974,481.937 371,481.937C446.026,481.937 506.938,421.026 506.938,346L588.5,346Z" style="fill:rgb(18,18,18);"/>
            </g>
            <g transform="matrix(0.766284,0,0,0.766284,176.208812,-623.813184)">
                <path d="M153.5,346C153.5,225.958 250.958,128.5 371,128.5C491.042,128.5 588.5,225.958 588.5,346L506.938,346C506.938,270.974 446.026,210.062 371,210.062C295.974,210.062 235.063,270.974 235.063,346L153.5,346Z" style="fill:rgb(18,18,18);"/>
            </g>
            <g transform="matrix(0.766284,0,0,0.766284,-73.791188,-873.813184)">
                <path d="M371,128.5C491.042,128.5 588.5,225.958 588.5,346C588.5,466.042 491.042,563.5 371,563.5L371,481.937C446.026,481.937 506.938,421.026 506.938,346C506.938,270.974 446.026,210.062 371,210.062L371,128.5Z" style="fill:rgb(18,18,18);"/>
            </g>
            <g transform="matrix(0.766284,0,0,0.766284,426.208812,-873.813184)">
                <path d="M371,481.937L371,563.5C250.958,563.5 153.5,466.042 153.5,346C153.5,225.958 250.958,128.5 371,128.5L371,210.062C295.974,210.062 235.062,270.974 235.062,346C235.062,421.026 295.974,481.937 371,481.937Z" style="fill:rgb(18,18,18);"/>
            </g>
            <g transform="matrix(1.402725,0,0,1.402725,-83.24069,-1052.060459)">
                <g transform="matrix(127.040218,0,0,127.040218,251,629)">
                    <path d="M0.028,-0.28C0.028,-0.337 0.039,-0.388 0.06,-0.431C0.082,-0.474 0.112,-0.508 0.149,-0.531C0.186,-0.554 0.228,-0.566 0.274,-0.566C0.313,-0.566 0.348,-0.558 0.378,-0.542C0.407,-0.526 0.43,-0.505 0.446,-0.479L0.446,-0.558L0.617,-0.558L0.617,-0L0.446,-0L0.446,-0.079C0.429,-0.053 0.406,-0.032 0.377,-0.016C0.347,0 0.312,0.008 0.273,0.008C0.228,0.008 0.186,-0.004 0.149,-0.028C0.112,-0.051 0.082,-0.085 0.06,-0.129C0.039,-0.172 0.028,-0.223 0.028,-0.28ZM0.446,-0.279C0.446,-0.322 0.434,-0.355 0.411,-0.38C0.387,-0.405 0.358,-0.417 0.324,-0.417C0.29,-0.417 0.261,-0.405 0.238,-0.381C0.214,-0.356 0.202,-0.323 0.202,-0.28C0.202,-0.237 0.214,-0.204 0.238,-0.178C0.261,-0.153 0.29,-0.141 0.324,-0.141C0.358,-0.141 0.387,-0.153 0.411,-0.178C0.434,-0.203 0.446,-0.236 0.446,-0.279Z" style="fill:rgb(18,18,18);fill-rule:nonzero;"/>
                </g>
                <g transform="matrix(127.040218,0,0,127.040218,328.367493,629)">
                    <path d="M0.233,-0.465C0.253,-0.496 0.278,-0.52 0.308,-0.537C0.338,-0.555 0.371,-0.564 0.408,-0.564L0.408,-0.383L0.361,-0.383C0.318,-0.383 0.286,-0.374 0.265,-0.355C0.244,-0.337 0.233,-0.305 0.233,-0.259L0.233,-0L0.062,-0L0.062,-0.558L0.233,-0.558L0.233,-0.465Z" style="fill:rgb(18,18,18);fill-rule:nonzero;"/>
                </g>
                <g transform="matrix(127.040218,0,0,127.040218,373.847891,629)">
                    <path d="M0.403,-0L0.233,-0.234L0.233,-0L0.062,-0L0.062,-0.74L0.233,-0.74L0.233,-0.331L0.402,-0.558L0.613,-0.558L0.381,-0.278L0.615,-0L0.403,-0Z" style="fill:rgb(18,18,18);fill-rule:nonzero;"/>
                </g>
                <g transform="matrix(127.040218,0,0,127.040218,443.46593,629)">
                    <path d="M0.316,0.008C0.261,0.008 0.212,-0.004 0.169,-0.027C0.125,-0.05 0.091,-0.084 0.066,-0.127C0.041,-0.17 0.028,-0.221 0.028,-0.279C0.028,-0.336 0.041,-0.387 0.066,-0.43C0.091,-0.474 0.126,-0.508 0.17,-0.531C0.214,-0.554 0.263,-0.566 0.318,-0.566C0.373,-0.566 0.422,-0.554 0.466,-0.531C0.51,-0.508 0.545,-0.474 0.57,-0.43C0.595,-0.387 0.608,-0.336 0.608,-0.279C0.608,-0.222 0.595,-0.171 0.57,-0.128C0.544,-0.084 0.509,-0.05 0.465,-0.027C0.42,-0.004 0.371,0.008 0.316,0.008ZM0.316,-0.14C0.349,-0.14 0.377,-0.152 0.4,-0.176C0.423,-0.2 0.434,-0.234 0.434,-0.279C0.434,-0.324 0.423,-0.358 0.401,-0.382C0.378,-0.406 0.351,-0.418 0.318,-0.418C0.285,-0.418 0.257,-0.406 0.235,-0.383C0.213,-0.359 0.202,-0.324 0.202,-0.279C0.202,-0.234 0.213,-0.2 0.235,-0.176C0.256,-0.152 0.283,-0.14 0.316,-0.14Z" style="fill:rgb(18,18,18);fill-rule:nonzero;"/>
                </g>
            </g>
        </g>
    </g>
</svg>
